<?xml version="1.0" encoding="UTF-8" standalone="no"?>
<svg width="17px" height="17px" viewBox="0 0 17 17" version="1.1" xmlns="http://www.w3.org/2000/svg" xmlns:xlink="http://www.w3.org/1999/xlink" xmlns:sketch="http://www.bohemiancoding.com/sketch/ns">
    <!-- Generator: Sketch 3.4 (15575) - http://www.bohemiancoding.com/sketch -->
    <title>icon-github</title>
    <desc>Created with Sketch.</desc>
    <defs></defs>
    <g id="Page-1" stroke="none" stroke-width="1" fill="none" fill-rule="evenodd" sketch:type="MSPage">
        <g id="Empty-state" sketch:type="MSArtboardGroup" transform="translate(-849.000000, -17.000000)" fill="#9999CC">
            <g id="Header" sketch:type="MSLayerGroup">
                <path d="M849,25.5 C849,23.1536458 849.830078,21.1503906 851.490234,19.4902344 C853.150391,17.8300781 855.153646,17 857.5,17 C859.846354,17 861.849609,17.8300781 863.509766,19.4902344 C865.169922,21.1503906 866,23.1536458 866,25.5 C866,27.8463542 865.169922,29.8496094 863.509766,31.5097656 C861.849609,33.1699219 859.846354,34 857.5,34 C855.153646,34 853.150391,33.1699219 851.490234,31.5097656 C849.830078,29.8496094 849,27.8463542 849,25.5 L849,25.5 Z M850.82026,25.49952 C850.82026,27.33534 851.474515,28.907505 852.783025,30.216015 C854.091535,31.524525 855.6637,32.17878 857.49952,32.17878 C859.33534,32.17878 860.907505,31.524525 862.216015,30.216015 C863.524525,28.907505 864.17878,27.33534 864.17878,25.49952 C864.17878,23.6637 863.524525,22.091535 862.216015,20.783025 C860.907505,19.474515 859.33534,18.82026 857.49952,18.82026 C855.6637,18.82026 854.091535,19.474515 852.783025,20.783025 C851.474515,22.091535 850.82026,23.6637 850.82026,25.49952 L850.82026,25.49952 Z M852.9295,27.110745 C852.89044,27.071685 852.89044,27.032625 852.9295,26.993565 C853.00762,26.915445 853.10527,26.88615 853.22245,26.90568 C853.33963,26.92521 853.407985,26.94474 853.427515,26.96427 C853.564225,27.02286 853.71558,27.15469 853.88158,27.35976 C854.04758,27.56483 854.17941,27.706425 854.27707,27.784545 C854.74579,28.175145 855.224275,28.20444 855.712525,27.87243 C855.751585,27.73572 855.815055,27.61854 855.902935,27.52089 C855.990815,27.42324 856.07382,27.354885 856.15195,27.315825 C856.23008,27.276765 856.36679,27.218175 856.56208,27.140055 C855.91759,27.081465 855.39516,26.969165 854.99479,26.803155 C854.59442,26.637145 854.277055,26.4272 854.042695,26.17332 C853.730215,25.82178 853.539795,25.362825 853.471435,24.796455 C853.403075,24.230085 853.44702,23.71254 853.60327,23.24382 C853.72045,22.95087 853.886455,22.687215 854.101285,22.452855 C853.945045,21.964605 853.97434,21.408 854.18917,20.78304 C854.81413,20.8221 855.3805,21.03693 855.88828,21.42753 C856.86478,21.17364 857.88034,21.163875 858.93496,21.398235 C859.07167,21.300585 859.281615,21.17852 859.564795,21.03204 C859.847975,20.88556 860.2044,20.802555 860.63407,20.783025 C860.71219,20.997855 860.7659,21.251745 860.7952,21.544695 C860.8245,21.837645 860.809855,22.111065 860.751265,22.364955 C861.200455,22.833675 861.434815,23.458635 861.454345,24.239835 C861.454345,24.864795 861.34693,25.38234 861.1321,25.79247 C860.91727,26.2026 860.536435,26.544375 859.989595,26.817795 C859.618525,26.993565 859.130275,27.10098 858.524845,27.14004 C858.798265,27.27675 858.99845,27.418345 859.1254,27.564825 C859.25235,27.711305 859.335355,27.94078 859.374415,28.25325 L859.374415,29.17605 C859.374415,29.17605 859.38418,29.473885 859.40371,30.069555 C859.4623,30.167205 859.530655,30.25021 859.608775,30.31857 C859.686895,30.38693 859.75525,30.435755 859.81384,30.465045 C859.87243,30.494335 859.89196,30.53828 859.87243,30.59688 C859.8529,30.65548 859.77478,30.684775 859.63807,30.684765 C859.30606,30.684765 859.042405,30.567585 858.847105,30.333225 C858.788515,30.235575 858.75922,30.118395 858.75922,29.981685 L858.75922,28.575525 C858.75922,28.419285 858.72016,28.306985 858.64204,28.238625 C858.56392,28.170265 858.4858,28.12632 858.40768,28.10679 L858.40768,29.952375 C858.40768,30.284385 858.44674,30.499215 858.52486,30.596865 C858.60298,30.694515 858.651805,30.792165 858.671335,30.889815 C858.690865,30.909345 858.67622,30.92399 858.6274,30.93375 C858.57858,30.94351 858.495575,30.928865 858.378385,30.889815 C858.124495,30.831225 857.948725,30.699395 857.851075,30.494325 C857.753425,30.289255 857.7046,30.06954 857.7046,29.83518 L857.7046,28.01889 L857.323765,28.01889 L857.323765,29.83518 C857.323765,30.06954 857.27494,30.294135 857.17729,30.508965 C857.04058,30.782385 856.78669,30.92886 856.41562,30.94839 C856.35703,30.92886 856.327735,30.90933 856.327735,30.8898 C856.347265,30.87027 856.405855,30.77262 856.503505,30.59685 C856.523035,30.55779 856.54745,30.47967 856.57675,30.36249 C856.60605,30.24531 856.620695,30.1086 856.620685,29.95236 L856.620685,28.106775 C856.542565,28.126305 856.469325,28.17025 856.400965,28.23861 C856.332605,28.30697 856.298425,28.41927 856.298425,28.57551 L856.298425,29.98167 C856.298425,30.11838 856.26913,30.23556 856.21054,30.33321 C856.03477,30.56757 855.771115,30.68475 855.419575,30.68475 C855.282865,30.68475 855.204745,30.655455 855.185215,30.596865 C855.165685,30.557805 855.17057,30.523625 855.19987,30.494325 C855.22917,30.465025 855.273115,30.430845 855.331705,30.391785 C855.390295,30.352725 855.429355,30.32343 855.448885,30.3039 C855.527005,30.24531 855.585595,30.16719 855.624655,30.06954 C855.683245,29.99142 855.69789,29.786355 855.66859,29.454345 C855.63929,29.122335 855.634405,28.907505 855.653935,28.809855 C855.146155,28.985625 854.62861,28.89774 854.1013,28.5462 C853.94506,28.38996 853.78882,28.165365 853.63258,27.872415 C853.5154,27.657585 853.28104,27.403695 852.9295,27.110745 L852.9295,27.110745 Z" id="icon-github" sketch:type="MSShapeGroup"></path>
            </g>
        </g>
    </g>
</svg>