<svg xmlns="http://www.w3.org/2000/svg" width="17" height="17">
  <path fill="#99C" fill-rule="evenodd" d="M0 8.5c0-2.3463542.830078-4.3496094 2.490234-6.0097656C4.150391.8300781 6.153646 0 8.5 0s4.349609.8300781 6.009766 2.4902344C16.169922 4.1503906 17 6.1536458 17 8.5c0 2.3463542-.830078 4.3496094-2.490234 6.0097656C12.849609 16.1699219 10.846354 17 8.5 17s-4.349609-.8300781-6.009766-2.4902344C.830078 12.8496094 0 10.8463542 0 8.5zm1.82026-.00048c0 1.83582.654255 3.407985 1.962765 4.716495S6.6637 15.17878 8.49952 15.17878s3.407985-.654255 4.716495-1.962765S15.17878 10.33534 15.17878 8.49952s-.654255-3.407985-1.962765-4.716495S10.33534 1.82026 8.49952 1.82026s-3.407985.654255-4.716495 1.962765S1.82026 6.6637 1.82026 8.49952zm2.10924 1.611225c-.03906-.03906-.03906-.07812 0-.11718.07812-.07812.17577-.107415.29295-.087885.11718.01953.185535.03906.205065.05859.13671.05859.288065.19042.454065.39549.166.20507.29783.346665.39549.424785.46872.3906.947205.419895 1.435455.087885.03906-.13671.10253-.25389.19041-.35154.08788-.09765.170885-.166005.249015-.205065.07813-.03906.21484-.09765.41013-.17577-.64449-.05859-1.16692-.17089-1.56729-.3369-.40037-.16601-.717735-.375955-.952095-.629835-.31248-.35154-.5029-.810495-.57126-1.376865-.06836-.56637-.024415-1.083915.131835-1.552635.11718-.29295.283185-.556605.498015-.790965-.15624-.48825-.126945-1.044855.087885-1.669815.62496.03906 1.19133.25389 1.69911.64449.9765-.25389 1.99206-.263655 3.04668-.029295.13671-.09765.346655-.219715.629835-.366195.28318-.14648.639605-.229485 1.069275-.249015.07812.21483.13183.46872.16113.76167.0293.29295.014655.56637-.043935.82026.44919.46872.68355 1.09368.70308 1.87488 0 .62496-.107415 1.142505-.322245 1.552635-.21483.41013-.595665.751905-1.142505 1.025325-.37107.17577-.85932.283185-1.46475.322245.27342.13671.473605.278305.600555.424785.12695.14648.209955.375955.249015.688425v.9228l.029295.893505c.05859.09765.126945.180655.205065.249015.07812.06836.146475.117185.205065.146475.05859.02929.07812.073235.05859.131835-.01953.0586-.09765.087895-.23436.087885-.33201 0-.595665-.11718-.790965-.35154-.05859-.09765-.087885-.21483-.087885-.35154v-1.40616c0-.15624-.03906-.26854-.11718-.3369-.07812-.06836-.15624-.112305-.23436-.131835v1.845585c0 .33201.03906.54684.11718.64449.07812.09765.126945.1953.146475.29295.01953.01953.004885.034175-.043935.043935-.04882.00976-.131825-.004885-.249015-.043935-.25389-.05859-.42966-.19042-.52731-.39549-.09765-.20507-.146475-.424785-.146475-.659145v-1.81629h-.380835v1.81629c0 .23436-.048825.458955-.146475.673785-.13671.27342-.3906.419895-.76167.439425-.05859-.01953-.087885-.03906-.087885-.05859.01953-.01953.07812-.11718.17577-.29295.01953-.03906.043945-.11718.073245-.23436.0293-.11718.043945-.25389.043935-.41013v-1.845585c-.07812.01953-.15136.063475-.21972.131835s-.10254.18066-.10254.3369v1.40616c0 .13671-.029295.25389-.087885.35154-.17577.23436-.439425.35154-.790965.35154-.13671 0-.21483-.029295-.23436-.087885-.01953-.03906-.014645-.07324.014655-.10254.0293-.0293.073245-.06348.131835-.10254.05859-.03906.09765-.068355.11718-.087885.07812-.05859.13671-.13671.17577-.23436.05859-.07812.073235-.283185.043935-.615195-.0293-.33201-.034185-.54684-.014655-.64449-.50778.17577-1.025325.087885-1.552635-.263655-.15624-.15624-.31248-.380835-.46872-.673785-.11718-.21483-.35154-.46872-.70308-.76167z"/>
</svg>
