<svg xmlns="http://www.w3.org/2000/svg" version="1.1" id="Layer_1" x="0px" y="0px" viewBox="0 0 30 10" enable-background="new 0 0 30 10" xml:space="preserve"><path fill="#5D6577" d="M5 2c1.654 0 3 1.346 3 3S6.654 8 5 8 2 6.654 2 5 3.346 2 5 2M5 0C2.239 0 0 2.239 0 5s2.239 5 5 5 5-2.239 5-5S7.761 0 5 0L5 0z"/><path fill="#C1C6D1" d="M15 2c1.654 0 3 1.346 3 3s-1.346 3-3 3 -3-1.346-3-3S13.346 2 15 2M15 0c-2.761 0-5 2.239-5 5s2.239 5 5 5 5-2.239 5-5S17.761 0 15 0L15 0z"/><circle fill="#959CAD" cx="25" cy="5" r="5"/></svg>
