<?xml version="1.0" encoding="UTF-8" standalone="no"?>
<svg width="8px" height="13px" viewBox="0 0 8 13" version="1.1" xmlns="http://www.w3.org/2000/svg" xmlns:xlink="http://www.w3.org/1999/xlink">
    <!-- Generator: Sketch 3.6.1 (26313) - http://www.bohemiancoding.com/sketch -->
    <title>Slice 1</title>
    <desc>Created with Sketch.</desc>
    <defs></defs>
    <g id="Page-1" stroke="none" stroke-width="1" fill="none" fill-rule="evenodd">
        <g id="Group-4" transform="translate(4.000000, 6.500000) rotate(-90.000000) translate(-4.000000, -6.500000) translate(-2.500000, 2.500000)" fill="#49B7FF">
            <path d="M7.30882112,3.89981137 L3.32898296,-0.0800267807 C2.89623852,-0.512771223 2.89200564,-1.2293147 3.33134547,-1.66865453 C3.7737483,-2.11105735 4.48193817,-2.10905209 4.91997322,-1.67101704 L9.69766901,3.10667875 C9.91365339,3.32266314 10.0228936,3.60934315 10.0235171,3.89696989 C10.026305,4.18838931 9.91629701,4.47431599 9.69766901,4.69294399 L4.91997322,9.47063979 C4.48722878,9.90338423 3.7706853,9.9076171 3.33134547,9.46827728 C2.88894265,9.02587445 2.89094791,8.31768458 3.32898296,7.87964953 L7.30882112,3.89981137 L7.30882112,3.89981137 L7.30882112,3.89981137 Z" id="Arrow-Up-Copy-2" transform="translate(6.511784, 3.898245) rotate(-270.000000) translate(-6.511784, -3.898245) "></path>
        </g>
    </g>
</svg>